HIERARCHY
ROOT Joint1
{
	OFFSET 0.000000 0.000000 0.000000
	CHANNELS 6 Xposition Yposition Zposition Xrotation Yrotation Zrotation
	JOINT Joint2
	{
		OFFSET -0.000000 0.000000 1.456275
		CHANNELS 6 Xposition Yposition Zposition Xrotation Yrotation Zrotation
		JOINT Joint3
		{
			OFFSET -0.000000 0.000002 1.471446
			CHANNELS 6 Xposition Yposition Zposition Xrotation Yrotation Zrotation
			JOINT Joint4
			{
				OFFSET 0.625745 0.000000 0.917755
				CHANNELS 6 Xposition Yposition Zposition Xrotation Yrotation Zrotation
				JOINT Joint5
				{
					OFFSET -0.629534 0.000001 0.940221
					CHANNELS 6 Xposition Yposition Zposition Xrotation Yrotation Zrotation
					JOINT Joint6
					{
						OFFSET -0.000001 0.113772 1.960660
						CHANNELS 6 Xposition Yposition Zposition Xrotation Yrotation Zrotation
						JOINT Joint7
						{
							OFFSET -0.669733 -0.113771 0.388340
							CHANNELS 6 Xposition Yposition Zposition Xrotation Yrotation Zrotation
							End Site
							{
								OFFSET 0.005509 0.005509 0.438980
							}
						}
					}
				}
			}
		}
	}
}
MOTION
Frames: 14
Frame Time: 0.041667
0.000000 0.000000 0.000000 -0.000000 1.019410 17.932617 -0.000000 -0.000000 1.456275 0.000000 -0.617601 0.000000 -0.000000 0.000002 1.471446 -0.000000 -1.133461 -16.199703 0.625745 0.000000 0.917755 -0.000549 89.861097 0.000462 -0.629533 0.000001 0.940221 0.000000 1.709736 -35.465914 -0.000001 0.113772 1.960660 -88.303882 146.255414 0.000002 -0.669732 -0.113771 0.388340 0.062378 3.216658 85.991856 
0.000000 0.000000 0.000000 -0.000000 1.019410 18.608833 -0.000000 -0.000000 1.456275 0.000000 1.054742 -0.000000 -0.000000 0.000002 1.471446 -0.000000 -1.133461 -16.809287 0.625745 0.000000 0.917755 -0.000042 88.158713 0.000029 -0.629534 0.000001 0.940221 0.000000 1.709736 -36.802203 -0.000001 0.113772 1.960661 -88.303882 148.376980 0.000002 -0.669733 -0.113771 0.388340 0.083483 3.191608 84.146086 
0.000000 0.000000 0.000000 -0.000000 1.019410 19.213944 -0.000000 0.000000 1.456275 -0.000000 2.551224 -0.000001 -0.000000 0.000002 1.471446 -0.000000 -1.133461 -17.354768 0.625745 0.000000 0.917755 -0.000022 86.635363 0.000015 -0.629534 0.000001 0.940221 0.000000 1.709736 -37.997968 -0.000001 0.113772 1.960660 -88.303882 150.275432 0.000002 -0.669733 -0.113771 0.388340 0.101675 3.168624 82.494451 
0.000000 0.000000 0.000000 -0.000000 1.019410 19.665546 -0.000000 0.000000 1.456275 -0.000000 3.668072 0.000001 -0.000000 0.000002 1.471446 0.000000 -1.133461 -17.761869 0.625745 0.000000 0.917755 -0.000016 85.498457 0.000011 -0.629534 0.000001 0.940221 0.000000 1.709736 -38.890397 -0.000001 0.113772 1.960660 -88.303882 151.692272 0.000001 -0.669733 -0.113771 0.388340 0.114815 3.151139 81.261855 
0.000000 0.000000 0.000000 -0.000000 1.019410 20.049865 -0.000000 0.000000 1.456275 0.000000 4.618518 -0.000001 -0.000000 0.000002 1.471446 -0.000000 -1.133462 -18.108319 0.625745 0.000000 0.917755 -0.000017 84.530940 0.000009 -0.629534 0.000001 0.940221 0.000000 1.709736 -39.649849 -0.000000 0.113772 1.960660 -88.303882 152.898019 0.000002 -0.669733 -0.113771 0.388340 0.125698 3.136035 80.212915 
0.000000 0.000000 0.000000 -0.000000 1.019410 20.495272 -0.000000 -0.000000 1.456275 0.000000 5.720049 -0.000001 -0.000000 0.000002 1.471445 -0.000000 -1.133461 -18.509838 0.625745 0.000000 0.917755 -0.000009 83.409628 0.000011 -0.629534 0.000001 0.940221 0.000001 1.709736 -40.530032 -0.000001 0.113772 1.960661 -88.303882 154.295449 0.000001 -0.669733 -0.113771 0.388340 0.137962 3.118287 78.997258 
0.000000 0.000000 0.000000 -0.000000 1.019410 21.091865 -0.000000 -0.000000 1.456275 -0.000000 7.195473 -0.000000 -0.000000 0.000002 1.471446 0.000000 -1.133462 -19.047644 0.625745 0.000000 0.917755 -0.000010 81.907710 0.000007 -0.629534 0.000001 0.940221 0.000000 1.709736 -41.708970 -0.000001 0.113772 1.960661 -88.303882 156.167180 0.000001 -0.669733 -0.113771 0.388340 0.153792 3.094117 77.369009 
0.000000 0.000000 0.000000 -0.000000 1.019410 21.776598 -0.000000 -0.000000 1.456275 0.000000 8.888874 0.000000 -0.000000 0.000002 1.471445 -0.000000 -1.133462 -19.664905 0.625745 0.000000 0.917755 -0.000007 80.183894 0.000006 -0.629534 0.000001 0.940221 0.000000 1.709736 -43.062085 -0.000001 0.113771 1.960661 -88.303882 158.315479 0.000001 -0.669733 -0.113771 0.388340 0.171104 3.065835 75.500255 
0.000000 0.000000 0.000000 -0.000000 1.019410 22.454737 -0.000000 -0.000000 1.456275 -0.000000 10.565971 -0.000002 -0.000000 0.000002 1.471446 -0.000000 -1.133462 -20.276219 0.625745 0.000000 0.917755 -0.000005 78.476681 0.000006 -0.629534 0.000001 0.940221 0.000001 1.709736 -44.402168 -0.000001 0.113773 1.960660 -88.303882 160.443070 0.000001 -0.669733 -0.113771 0.388340 0.187330 3.037280 73.649547 
0.000000 0.000000 0.000000 -0.000000 1.019410 23.057925 -0.000000 0.000000 1.456275 -0.000000 12.057701 -0.000001 -0.000000 0.000002 1.471446 0.000000 -1.133461 -20.819970 0.625745 0.000000 0.917755 -0.000004 76.958166 0.000003 -0.629534 0.000001 0.940221 0.000001 1.709736 -45.594139 -0.000001 0.113772 1.960660 -88.303882 162.335497 0.000001 -0.669733 -0.113771 0.388339 0.200980 3.011459 72.003451 
0.000000 0.000000 0.000000 -0.000000 1.019410 23.544357 -0.000000 -0.000000 1.456275 -0.000000 13.260689 0.000001 -0.000000 0.000002 1.471445 -0.000001 -1.133461 -21.258472 0.625745 0.000000 0.917755 -0.000003 75.733575 0.000003 -0.629534 0.000001 0.940221 0.000000 1.709736 -46.555392 -0.000001 0.113772 1.960661 -88.303882 163.861620 0.000001 -0.669733 -0.113771 0.388340 0.211443 2.990353 70.676004 
0.000000 0.000000 0.000000 -0.000000 1.019410 23.952123 -0.000000 0.000000 1.456275 -0.000001 14.269112 -0.000001 -0.000000 0.000002 1.471445 -0.000000 -1.133463 -21.626051 0.625745 0.000000 0.917755 -0.000005 74.707045 0.000004 -0.629533 0.000001 0.940221 0.000001 1.709736 -47.361174 -0.000001 0.113772 1.960661 -88.303882 165.140928 0.000001 -0.669733 -0.113771 0.388340 0.219834 2.972481 69.563277 
0.000000 0.000000 0.000000 -0.000000 1.019410 24.339254 -0.000000 0.000000 1.456275 0.000001 15.226527 0.000000 -0.000000 0.000002 1.471445 -0.000000 -1.133463 -21.975041 0.625745 0.000000 0.917755 -0.000002 73.732432 0.000003 -0.629534 0.000001 0.940221 0.000000 1.709736 -48.126203 -0.000001 0.113772 1.960661 -88.303882 166.355514 0.000001 -0.669733 -0.113771 0.388341 0.227478 2.955369 68.506859 
0.000000 0.000000 0.000000 -0.000000 1.019410 24.751335 -0.000000 -0.000000 1.456275 -0.000000 16.245639 -0.000001 -0.000000 0.000002 1.471446 0.000000 -1.133461 -22.346514 0.625745 0.000000 0.917755 -0.000003 72.695015 0.000004 -0.629534 0.000001 0.940221 0.000001 1.709736 -48.940522 -0.000001 0.113772 1.960661 -88.303882 167.648373 0.000001 -0.669733 -0.113771 0.388340 0.235265 2.936998 67.382377 
